<svg xmlns="http://www.w3.org/2000/svg" xmlns:xlink="http://www.w3.org/1999/xlink" width="500" zoomAndPan="magnify" viewBox="0 0 375 374.999991" height="500" preserveAspectRatio="xMidYMid meet" version="1.0"><defs><clipPath id="2b2b4c932c"><path d="M 27 34 L 348 34 L 348 343 L 27 343 Z M 27 34 " clip-rule="nonzero"/></clipPath><clipPath id="d7e3808977"><path d="M 192.351562 36.929688 L 242.070312 113.789062 C 245.199219 118.625 250 122.136719 255.554688 123.65625 L 342.820312 147.492188 C 344.738281 148.015625 346.269531 149.464844 346.894531 151.355469 C 347.519531 153.242188 347.15625 155.320312 345.925781 156.886719 L 289.339844 228.980469 C 285.777344 233.519531 283.964844 239.1875 284.234375 244.953125 L 288.523438 336.609375 C 288.617188 338.582031 287.707031 340.464844 286.109375 341.621094 C 284.507812 342.777344 282.433594 343.046875 280.589844 342.339844 L 195.84375 309.816406 C 190.46875 307.753906 184.519531 307.753906 179.144531 309.816406 L 94.398438 342.339844 C 92.554688 343.046875 90.480469 342.777344 88.882812 341.621094 C 87.28125 340.464844 86.375 338.582031 86.464844 336.609375 L 90.753906 244.953125 C 91.023438 239.1875 89.210938 233.519531 85.648438 228.980469 L 29.0625 156.886719 C 27.832031 155.320312 27.472656 153.242188 28.09375 151.355469 C 28.71875 149.464844 30.25 148.015625 32.167969 147.492188 L 119.433594 123.65625 C 124.988281 122.136719 129.789062 118.625 132.917969 113.789062 L 182.636719 36.929688 C 183.703125 35.28125 185.53125 34.285156 187.496094 34.285156 C 189.457031 34.285156 191.285156 35.28125 192.351562 36.929688 Z M 192.351562 36.929688 " clip-rule="nonzero"/></clipPath></defs><g clip-path="url(#2b2b4c932c)"><g clip-path="url(#d7e3808977)"><path stroke-linecap="butt" transform="matrix(0.75, 0, 0, 0.75, 23.539886, 29.420341)" fill="none" stroke-linejoin="miter" d="M 225.082249 10.012462 L 291.373921 112.491636 C 295.545796 118.939553 301.946838 123.621845 309.353088 125.647887 L 425.707263 157.429139 C 428.264554 158.127055 430.306221 160.059347 431.139555 162.580181 C 431.972888 165.095806 431.488513 167.866639 429.847888 169.955181 L 354.399966 266.080188 C 349.649966 272.132271 347.233299 279.689563 347.592674 287.377064 L 353.311425 409.585405 C 353.436425 412.215614 352.222883 414.726031 350.092674 416.267697 C 347.957258 417.809364 345.191632 418.168739 342.733299 417.226031 L 229.7385 373.861445 C 222.571833 371.111444 214.63954 371.111444 207.472873 373.861445 L 94.478074 417.226031 C 92.019741 418.168739 89.254116 417.809364 87.123907 416.267697 C 84.98849 414.726031 83.780157 412.215614 83.899949 409.585405 L 89.618699 287.377064 C 89.978074 279.689563 87.561407 272.132271 82.811407 266.080188 L 7.363485 169.955181 C 5.72286 167.866639 5.243693 165.095806 6.071818 162.580181 C 6.905152 160.059347 8.946819 158.127055 11.50411 157.429139 L 127.858285 125.647887 C 135.264535 123.621845 141.665577 118.939553 145.837453 112.491636 L 212.129124 10.012462 C 213.550999 7.814546 215.988499 6.486421 218.608291 6.486421 C 221.222874 6.486421 223.660374 7.814546 225.082249 10.012462 Z M 225.082249 10.012462 " stroke="#5170ff" stroke-width="74" stroke-opacity="1" stroke-miterlimit="4"/></g></g></svg>