<svg xmlns="http://www.w3.org/2000/svg" xmlns:xlink="http://www.w3.org/1999/xlink" width="500" zoomAndPan="magnify" viewBox="0 0 375 374.999991" height="500" preserveAspectRatio="xMidYMid meet" version="1.0"><defs><clipPath id="744f3b5c2e"><path d="M 27 34 L 347 34 L 347 343 L 27 343 Z M 27 34 " clip-rule="nonzero"/></clipPath><clipPath id="6e9c7ca701"><path d="M 192.085938 36.929688 L 241.804688 113.789062 C 244.933594 118.625 249.734375 122.136719 255.289062 123.65625 L 342.554688 147.492188 C 344.472656 148.015625 346.003906 149.464844 346.628906 151.355469 C 347.25 153.242188 346.890625 155.320312 345.660156 156.886719 L 289.074219 228.980469 C 285.511719 233.519531 283.699219 239.1875 283.96875 244.953125 L 288.257812 336.609375 C 288.347656 338.582031 287.441406 340.464844 285.839844 341.621094 C 284.242188 342.777344 282.167969 343.046875 280.324219 342.339844 L 195.578125 309.816406 C 190.203125 307.753906 184.253906 307.753906 178.878906 309.816406 L 94.132812 342.339844 C 92.289062 343.046875 90.214844 342.777344 88.617188 341.621094 C 87.015625 340.464844 86.105469 338.582031 86.199219 336.609375 L 90.488281 244.953125 C 90.757812 239.1875 88.945312 233.519531 85.382812 228.980469 L 28.796875 156.886719 C 27.566406 155.320312 27.203125 153.242188 27.828125 151.355469 C 28.453125 149.464844 29.984375 148.015625 31.902344 147.492188 L 119.167969 123.65625 C 124.722656 122.136719 129.523438 118.625 132.652344 113.789062 L 182.371094 36.929688 C 183.4375 35.28125 185.265625 34.285156 187.226562 34.285156 C 189.191406 34.285156 191.019531 35.28125 192.085938 36.929688 Z M 192.085938 36.929688 " clip-rule="nonzero"/></clipPath><clipPath id="62184e54a5"><path d="M 0.121094 0.078125 L 320 0.078125 L 320 309 L 0.121094 309 Z M 0.121094 0.078125 " clip-rule="nonzero"/></clipPath><clipPath id="a7b59e3de9"><path d="M 165.085938 2.929688 L 214.804688 79.789062 C 217.933594 84.625 222.734375 88.136719 228.289062 89.65625 L 315.554688 113.492188 C 317.472656 114.015625 319.003906 115.464844 319.628906 117.355469 C 320.25 119.242188 319.890625 121.320312 318.660156 122.886719 L 262.074219 194.980469 C 258.511719 199.519531 256.699219 205.1875 256.96875 210.953125 L 261.257812 302.609375 C 261.347656 304.582031 260.441406 306.464844 258.839844 307.621094 C 257.242188 308.777344 255.167969 309.046875 253.324219 308.339844 L 168.578125 275.816406 C 163.203125 273.753906 157.253906 273.753906 151.878906 275.816406 L 67.132812 308.339844 C 65.289062 309.046875 63.214844 308.777344 61.617188 307.621094 C 60.015625 306.464844 59.105469 304.582031 59.199219 302.609375 L 63.488281 210.953125 C 63.757812 205.1875 61.945312 199.519531 58.382812 194.980469 L 1.796875 122.886719 C 0.566406 121.320312 0.203125 119.242188 0.828125 117.355469 C 1.453125 115.464844 2.984375 114.015625 4.902344 113.492188 L 92.167969 89.65625 C 97.722656 88.136719 102.523438 84.625 105.652344 79.789062 L 155.371094 2.929688 C 156.4375 1.28125 158.265625 0.285156 160.226562 0.285156 C 162.191406 0.285156 164.019531 1.28125 165.085938 2.929688 Z M 165.085938 2.929688 " clip-rule="nonzero"/></clipPath><clipPath id="54c8f3296d"><rect x="0" width="320" y="0" height="309"/></clipPath><clipPath id="1b663eed5e"><path d="M 27 34 L 348 34 L 348 343 L 27 343 Z M 27 34 " clip-rule="nonzero"/></clipPath><clipPath id="43f99c91ed"><path d="M 192.351562 36.929688 L 242.070312 113.789062 C 245.199219 118.625 250 122.136719 255.554688 123.65625 L 342.820312 147.492188 C 344.738281 148.015625 346.269531 149.464844 346.894531 151.355469 C 347.519531 153.242188 347.15625 155.320312 345.925781 156.886719 L 289.339844 228.980469 C 285.777344 233.519531 283.964844 239.1875 284.234375 244.953125 L 288.523438 336.609375 C 288.617188 338.582031 287.707031 340.464844 286.109375 341.621094 C 284.507812 342.777344 282.433594 343.046875 280.589844 342.339844 L 195.84375 309.816406 C 190.46875 307.753906 184.519531 307.753906 179.144531 309.816406 L 94.398438 342.339844 C 92.554688 343.046875 90.480469 342.777344 88.882812 341.621094 C 87.28125 340.464844 86.375 338.582031 86.464844 336.609375 L 90.753906 244.953125 C 91.023438 239.1875 89.210938 233.519531 85.648438 228.980469 L 29.0625 156.886719 C 27.832031 155.320312 27.472656 153.242188 28.09375 151.355469 C 28.71875 149.464844 30.25 148.015625 32.167969 147.492188 L 119.433594 123.65625 C 124.988281 122.136719 129.789062 118.625 132.917969 113.789062 L 182.636719 36.929688 C 183.703125 35.28125 185.53125 34.285156 187.496094 34.285156 C 189.457031 34.285156 191.285156 35.28125 192.351562 36.929688 Z M 192.351562 36.929688 " clip-rule="nonzero"/></clipPath></defs><g clip-path="url(#744f3b5c2e)"><g clip-path="url(#6e9c7ca701)"><g transform="matrix(1, 0, 0, 1, 27, 34)"><g clip-path="url(#54c8f3296d)"><g clip-path="url(#62184e54a5)"><g clip-path="url(#a7b59e3de9)"><rect x="-109.5" width="540" fill="#5170ff" height="539.999987" y="-116.499998" fill-opacity="1"/></g></g></g></g></g></g><g clip-path="url(#1b663eed5e)"><g clip-path="url(#43f99c91ed)"><path stroke-linecap="butt" transform="matrix(0.75, 0, 0, 0.75, 23.539886, 29.42033)" fill="none" stroke-linejoin="miter" d="M 225.082249 10.012477 L 291.373921 112.491651 C 295.545796 118.939568 301.946838 123.62186 309.353088 125.647901 L 425.707263 157.429153 C 428.264554 158.12707 430.306221 160.059362 431.139555 162.580195 C 431.972888 165.095821 431.488513 167.866654 429.847888 169.955196 L 354.399966 266.080202 C 349.649966 272.132286 347.233299 279.689578 347.592674 287.377079 L 353.311425 409.58542 C 353.436425 412.215629 352.222883 414.726045 350.092674 416.267712 C 347.957258 417.809379 345.191632 418.168754 342.733299 417.226046 L 229.7385 373.861459 C 222.571833 371.111459 214.63954 371.111459 207.472873 373.861459 L 94.478074 417.226046 C 92.019741 418.168754 89.254116 417.809379 87.123907 416.267712 C 84.98849 414.726045 83.780157 412.215629 83.899949 409.58542 L 89.618699 287.377079 C 89.978074 279.689578 87.561407 272.132286 82.811407 266.080202 L 7.363485 169.955196 C 5.72286 167.866654 5.243693 165.095821 6.071818 162.580195 C 6.905152 160.059362 8.946819 158.12707 11.50411 157.429153 L 127.858285 125.647901 C 135.264535 123.62186 141.665577 118.939568 145.837453 112.491651 L 212.129124 10.012477 C 213.550999 7.81456 215.988499 6.486435 218.608291 6.486435 C 221.222874 6.486435 223.660374 7.81456 225.082249 10.012477 Z M 225.082249 10.012477 " stroke="#5170ff" stroke-width="74" stroke-opacity="1" stroke-miterlimit="4"/></g></g></svg>