<svg xmlns="http://www.w3.org/2000/svg" xmlns:xlink="http://www.w3.org/1999/xlink" width="1000" zoomAndPan="magnify" viewBox="0 0 750 187.499995" height="250" preserveAspectRatio="xMidYMid meet" version="1.0"><defs><g/><clipPath id="499c646735"><path d="M 15.398438 17.550781 L 168.890625 17.550781 L 168.890625 166.953125 L 15.398438 166.953125 Z M 15.398438 17.550781 " clip-rule="nonzero"/></clipPath><clipPath id="84a6a1c2e7"><path d="M 108.585938 26.558594 L 108.699219 26.730469 C 119.25 42.964844 135.410156 54.746094 154.097656 59.824219 C 160.523438 61.570312 165.644531 66.433594 167.722656 72.761719 C 169.800781 79.09375 168.5625 86.042969 164.421875 91.261719 L 164.335938 91.367188 C 152.230469 106.621094 146.0625 125.742188 146.972656 145.195312 L 147 145.710938 C 147.308594 152.359375 144.246094 158.71875 138.855469 162.621094 C 133.460938 166.523438 126.464844 167.441406 120.25 165.066406 C 102.113281 158.140625 82.066406 158.140625 63.929688 165.066406 C 57.710938 167.441406 50.714844 166.523438 45.324219 162.621094 C 39.933594 158.71875 36.871094 152.359375 37.179688 145.710938 L 37.203125 145.195312 C 38.113281 125.742188 31.949219 106.621094 19.84375 91.367188 L 19.757812 91.261719 C 15.617188 86.042969 14.375 79.09375 16.457031 72.761719 C 18.535156 66.433594 23.65625 61.570312 30.082031 59.824219 C 48.769531 54.746094 64.929688 42.964844 75.480469 26.730469 L 75.59375 26.558594 C 79.222656 20.976562 85.429688 17.605469 92.089844 17.605469 C 98.75 17.605469 104.957031 20.976562 108.585938 26.558594 Z M 108.585938 26.558594 " clip-rule="nonzero"/></clipPath><clipPath id="28772e69d3"><path d="M 0.398438 0.550781 L 153.890625 0.550781 L 153.890625 149.953125 L 0.398438 149.953125 Z M 0.398438 0.550781 " clip-rule="nonzero"/></clipPath><clipPath id="ebe25a226c"><path d="M 93.585938 9.558594 L 93.699219 9.730469 C 104.25 25.964844 120.410156 37.746094 139.097656 42.824219 C 145.523438 44.570312 150.644531 49.433594 152.722656 55.761719 C 154.800781 62.09375 153.5625 69.042969 149.421875 74.261719 L 149.335938 74.367188 C 137.230469 89.621094 131.0625 108.742188 131.972656 128.195312 L 132 128.710938 C 132.308594 135.359375 129.246094 141.71875 123.855469 145.621094 C 118.460938 149.523438 111.464844 150.441406 105.25 148.066406 C 87.113281 141.140625 67.066406 141.140625 48.929688 148.066406 C 42.710938 150.441406 35.714844 149.523438 30.324219 145.621094 C 24.933594 141.71875 21.871094 135.359375 22.179688 128.710938 L 22.203125 128.195312 C 23.113281 108.742188 16.949219 89.621094 4.84375 74.367188 L 4.757812 74.261719 C 0.617188 69.042969 -0.625 62.09375 1.457031 55.761719 C 3.535156 49.433594 8.65625 44.570312 15.082031 42.824219 C 33.769531 37.746094 49.929688 25.964844 60.480469 9.730469 L 60.59375 9.558594 C 64.222656 3.976562 70.429688 0.605469 77.089844 0.605469 C 83.75 0.605469 89.957031 3.976562 93.585938 9.558594 Z M 93.585938 9.558594 " clip-rule="nonzero"/></clipPath><clipPath id="2ce479f123"><rect x="0" width="154" y="0" height="150"/></clipPath><clipPath id="bcd28f16c6"><path d="M 84 57 L 137.523438 57 L 137.523438 131 L 84 131 Z M 84 57 " clip-rule="nonzero"/></clipPath><clipPath id="c9348ba309"><path d="M 47 79 L 82 79 L 82 151.980469 L 47 151.980469 Z M 47 79 " clip-rule="nonzero"/></clipPath><clipPath id="600c31a66d"><rect x="0" width="184" y="0" height="176"/></clipPath><clipPath id="106f8eaa69"><rect x="0" width="540" y="0" height="151"/></clipPath></defs><g transform="matrix(1, 0, 0, 1, 19, 5)"><g clip-path="url(#600c31a66d)"><g clip-path="url(#499c646735)"><g clip-path="url(#84a6a1c2e7)"><g transform="matrix(1, 0, 0, 1, 15, 17)"><g clip-path="url(#2ce479f123)"><g clip-path="url(#28772e69d3)"><g clip-path="url(#ebe25a226c)"><rect x="-307" width="1296" fill="#5170ff" y="-90.249998" height="323.999991" fill-opacity="1"/></g></g></g></g></g></g><g clip-path="url(#bcd28f16c6)"><path fill="#ffffff" d="M 103.109375 57.050781 L 97.847656 101.476562 C 97.285156 101.386719 96.707031 101.34375 96.109375 101.359375 C 94.929688 101.386719 93.726562 101.621094 92.535156 102.050781 C 87.46875 103.878906 84.164062 108.671875 85.003906 112.957031 C 85.644531 116.230469 88.621094 118.425781 92.40625 118.425781 C 92.484375 118.425781 92.566406 118.425781 92.644531 118.425781 C 93.824219 118.398438 95.027344 118.164062 96.222656 117.734375 C 100.304688 116.257812 103.378906 112.78125 103.878906 109.050781 L 108.03125 73.957031 L 129.289062 85.261719 L 125.917969 113.777344 C 125.371094 113.691406 124.789062 113.652344 124.230469 113.667969 C 123.050781 113.695312 121.847656 113.925781 120.65625 114.355469 C 115.597656 116.183594 112.289062 120.976562 113.128906 125.265625 C 113.769531 128.539062 116.742188 130.734375 120.527344 130.734375 C 120.609375 130.734375 120.6875 130.734375 120.765625 130.734375 C 121.949219 130.703125 123.152344 130.472656 124.347656 130.039062 C 128.421875 128.566406 131.476562 125.109375 131.945312 121.414062 L 137.496094 74.539062 L 103.109375 57.050781 " fill-opacity="1" fill-rule="nonzero"/></g><g clip-path="url(#c9348ba309)"><path fill="#ffffff" d="M 73.128906 93.195312 C 72.410156 92.628906 71.628906 92.082031 70.742188 91.523438 C 70.34375 91.273438 69.9375 91.035156 69.542969 90.8125 C 69.082031 90.550781 68.664062 90.335938 68.273438 90.140625 C 67.785156 89.894531 67.304688 89.660156 66.832031 89.433594 C 65.835938 88.953125 64.898438 88.503906 64.085938 88.007812 C 63.011719 87.367188 62.226562 86.664062 61.75 85.914062 C 61.613281 85.699219 61.324219 85.105469 61.09375 84.632812 L 60.71875 83.863281 C 60.367188 83.148438 59.972656 82.339844 59.175781 81.28125 C 58.382812 80.226562 57.183594 79.625 55.894531 79.625 C 55.386719 79.625 54.882812 79.714844 54.410156 79.898438 C 54.226562 79.96875 54.046875 80.050781 53.863281 80.148438 C 51.996094 81.167969 50.980469 83.386719 51.390625 85.558594 L 60.957031 127.640625 C 59.976562 127.753906 58.984375 128 58 128.378906 C 56.539062 128.9375 55.140625 129.761719 53.84375 130.828125 C 48.324219 135.363281 46.285156 142.777344 49.207031 147.714844 C 50.75 150.316406 53.476562 151.8125 56.683594 151.8125 C 58.0625 151.8125 59.472656 151.539062 60.875 151.003906 C 62.335938 150.445312 63.738281 149.617188 65.039062 148.546875 C 69.488281 144.882812 71.785156 139.210938 70.746094 134.40625 L 62.308594 97.292969 C 62.753906 97.453125 63.191406 97.605469 63.621094 97.753906 C 64.074219 97.910156 64.523438 98.0625 64.917969 98.207031 L 65.960938 98.613281 C 66.359375 98.78125 66.667969 98.917969 66.9375 99.050781 C 67.574219 99.351562 68.191406 99.6875 68.789062 100.050781 C 71.371094 101.609375 73.207031 103.613281 74.253906 106.035156 C 75.386719 108.570312 75.667969 111.851562 75.042969 115.296875 C 74.8125 116.609375 75.5625 117.890625 76.792969 118.269531 C 77.320312 118.429688 77.886719 118.414062 78.425781 118.210938 C 79.203125 117.910156 79.785156 117.269531 80.023438 116.460938 C 81.390625 111.914062 81.480469 107.257812 80.269531 103.367188 C 79.082031 99.476562 76.613281 95.964844 73.128906 93.195312 " fill-opacity="1" fill-rule="nonzero"/></g><path fill="#ffffff" d="M 90.628906 56.667969 C 90.371094 56.269531 90.085938 55.875 89.746094 55.457031 C 89.59375 55.269531 89.433594 55.082031 89.28125 54.910156 C 89.097656 54.707031 88.929688 54.53125 88.773438 54.371094 C 88.578125 54.171875 88.378906 53.976562 88.191406 53.789062 C 87.785156 53.386719 87.402344 53.011719 87.089844 52.636719 C 86.671875 52.144531 86.40625 51.671875 86.300781 51.226562 C 86.269531 51.101562 86.226562 50.765625 86.195312 50.492188 L 86.136719 50.054688 C 86.085938 49.652344 86.027344 49.191406 85.816406 48.542969 C 85.605469 47.894531 85.125 47.40625 84.492188 47.191406 C 84.246094 47.105469 83.988281 47.066406 83.722656 47.078125 C 83.625 47.078125 83.523438 47.089844 83.417969 47.109375 C 82.339844 47.292969 81.472656 48.207031 81.3125 49.328125 L 78.972656 71.417969 C 78.476562 71.308594 77.953125 71.265625 77.410156 71.285156 C 76.605469 71.316406 75.789062 71.484375 74.980469 71.789062 C 71.535156 73.078125 69.308594 76.351562 69.910156 79.238281 C 70.230469 80.765625 71.308594 81.945312 72.871094 82.480469 C 73.539062 82.707031 74.273438 82.8125 75.046875 82.785156 C 75.851562 82.753906 76.671875 82.582031 77.484375 82.28125 C 80.261719 81.234375 82.324219 78.855469 82.617188 76.339844 L 84.679688 56.863281 C 84.871094 57.015625 85.054688 57.160156 85.242188 57.304688 C 85.4375 57.457031 85.628906 57.605469 85.796875 57.742188 L 86.238281 58.113281 C 86.402344 58.261719 86.53125 58.378906 86.640625 58.488281 C 86.902344 58.738281 87.148438 59.003906 87.375 59.28125 C 88.375 60.472656 88.933594 61.753906 89.042969 63.105469 C 89.175781 64.527344 88.765625 66.175781 87.886719 67.75 C 87.554688 68.351562 87.707031 69.097656 88.242188 69.488281 C 88.472656 69.652344 88.753906 69.742188 89.050781 69.730469 C 89.476562 69.714844 89.867188 69.496094 90.117188 69.144531 C 91.542969 67.15625 92.355469 64.90625 92.417969 62.808594 C 92.484375 60.714844 91.867188 58.59375 90.628906 56.667969 " fill-opacity="1" fill-rule="nonzero"/></g></g><g transform="matrix(1, 0, 0, 1, 193, 18)"><g clip-path="url(#106f8eaa69)"><g fill="#5170ff" fill-opacity="1"><g transform="translate(0.619895, 112.82226)"><g><path d="M 68.546875 -75.1875 L 66.078125 -60.71875 L 46.046875 -60.71875 L 35.34375 0 L 17.03125 0 L 27.734375 -60.71875 L 7.8125 -60.71875 L 10.390625 -75.1875 Z M 68.546875 -75.1875 "/></g></g></g><g fill="#5170ff" fill-opacity="1"><g transform="translate(58.231817, 112.82226)"><g><path d="M 70.6875 -59.765625 L 60.1875 0 L 41.875 0 L 43.265625 -8.140625 C 40.910156 -5.492188 38.035156 -3.367188 34.640625 -1.765625 C 31.253906 -0.160156 27.632812 0.640625 23.78125 0.640625 C 17.78125 0.640625 13.066406 -1.050781 9.640625 -4.4375 C 6.210938 -7.832031 4.5 -12.566406 4.5 -18.640625 C 4.5 -20.921875 4.675781 -22.988281 5.03125 -24.84375 L 11.25 -59.765625 L 29.453125 -59.765625 L 23.78125 -27.3125 C 23.5625 -26.164062 23.453125 -25.054688 23.453125 -23.984375 C 23.453125 -20.984375 24.289062 -18.679688 25.96875 -17.078125 C 27.644531 -15.472656 29.984375 -14.671875 32.984375 -14.671875 C 36.410156 -14.671875 39.316406 -15.6875 41.703125 -17.71875 C 44.097656 -19.757812 45.691406 -22.671875 46.484375 -26.453125 L 52.375 -59.765625 Z M 70.6875 -59.765625 "/></g></g></g><g fill="#5170ff" fill-opacity="1"><g transform="translate(124.731895, 112.82226)"><g><path d="M 48.1875 -60.40625 C 54.1875 -60.40625 58.898438 -58.722656 62.328125 -55.359375 C 65.753906 -52.003906 67.46875 -47.332031 67.46875 -41.34375 C 67.46875 -39.34375 67.253906 -37.195312 66.828125 -34.90625 L 60.609375 0 L 42.40625 0 L 48.1875 -32.453125 C 48.40625 -33.660156 48.515625 -34.726562 48.515625 -35.65625 C 48.515625 -38.65625 47.675781 -40.976562 46 -42.625 C 44.320312 -44.269531 41.984375 -45.09375 38.984375 -45.09375 C 35.410156 -45.09375 32.410156 -43.984375 29.984375 -41.765625 C 27.554688 -39.554688 25.988281 -36.453125 25.28125 -32.453125 L 25.28125 -32.984375 L 19.484375 0 L 1.171875 0 L 11.671875 -59.765625 L 29.984375 -59.765625 L 28.59375 -51.71875 C 30.945312 -54.363281 33.816406 -56.472656 37.203125 -58.046875 C 40.597656 -59.617188 44.257812 -60.40625 48.1875 -60.40625 Z M 48.1875 -60.40625 "/></g></g></g><g fill="#5170ff" fill-opacity="1"><g transform="translate(191.231973, 112.82226)"><g><path d="M 38.453125 -60.609375 C 46.160156 -60.609375 52.28125 -58.519531 56.8125 -54.34375 C 61.34375 -50.164062 63.609375 -44.472656 63.609375 -37.265625 C 63.609375 -34.910156 63.429688 -32.804688 63.078125 -30.953125 C 62.796875 -29.304688 62.367188 -27.554688 61.796875 -25.703125 L 20.34375 -25.703125 C 20.269531 -25.273438 20.234375 -24.597656 20.234375 -23.671875 C 20.234375 -20.523438 21.085938 -18.128906 22.796875 -16.484375 C 24.515625 -14.847656 26.804688 -14.03125 29.671875 -14.03125 C 34.234375 -14.03125 37.726562 -15.957031 40.15625 -19.8125 L 59.65625 -19.8125 C 57.082031 -13.738281 52.90625 -8.773438 47.125 -4.921875 C 41.34375 -1.066406 34.84375 0.859375 27.625 0.859375 C 19.914062 0.859375 13.757812 -1.28125 9.15625 -5.5625 C 4.550781 -9.851562 2.25 -15.675781 2.25 -23.03125 C 2.25 -25.238281 2.460938 -27.519531 2.890625 -29.875 C 3.960938 -36.09375 6.175781 -41.519531 9.53125 -46.15625 C 12.882812 -50.800781 17.0625 -54.367188 22.0625 -56.859375 C 27.0625 -59.359375 32.523438 -60.609375 38.453125 -60.609375 Z M 45.09375 -35.015625 C 45.226562 -36.015625 45.296875 -36.691406 45.296875 -37.046875 C 45.296875 -39.910156 44.40625 -42.109375 42.625 -43.640625 C 40.84375 -45.171875 38.488281 -45.9375 35.5625 -45.9375 C 32.414062 -45.9375 29.644531 -44.988281 27.25 -43.09375 C 24.863281 -41.207031 23.132812 -38.515625 22.0625 -35.015625 Z M 45.09375 -35.015625 "/></g></g></g><g fill="#5170ff" fill-opacity="1"><g transform="translate(251.521044, 112.82226)"><g/></g></g><g fill="#5170ff" fill-opacity="1"><g transform="translate(270.58193, 112.82226)"><g><path d="M 45.1875 -75.1875 C 52.96875 -75.1875 58.894531 -73.414062 62.96875 -69.875 C 67.039062 -66.34375 69.078125 -61.753906 69.078125 -56.109375 C 69.078125 -54.472656 68.929688 -52.941406 68.640625 -51.515625 C 67.785156 -46.515625 65.609375 -42.050781 62.109375 -38.125 C 58.609375 -34.195312 53.929688 -31.410156 48.078125 -29.765625 L 60.1875 0 L 39.515625 0 L 28.921875 -28.375 L 24.53125 -28.375 L 19.484375 0 L 1.171875 0 L 14.453125 -75.1875 Z M 49.90625 -50.765625 C 50.050781 -51.898438 50.125 -52.648438 50.125 -53.015625 C 50.125 -55.296875 49.390625 -57.0625 47.921875 -58.3125 C 46.460938 -59.5625 44.300781 -60.1875 41.4375 -60.1875 L 30.09375 -60.1875 L 26.78125 -41.34375 L 38.125 -41.34375 C 41.476562 -41.34375 44.132812 -42.160156 46.09375 -43.796875 C 48.0625 -45.441406 49.332031 -47.765625 49.90625 -50.765625 Z M 49.90625 -50.765625 "/></g></g></g><g fill="#5170ff" fill-opacity="1"><g transform="translate(334.726121, 112.82226)"><g><path d="M 2.890625 -29.984375 C 3.960938 -36.128906 6.066406 -41.519531 9.203125 -46.15625 C 12.347656 -50.800781 16.132812 -54.367188 20.5625 -56.859375 C 24.988281 -59.359375 29.664062 -60.609375 34.59375 -60.609375 C 38.800781 -60.609375 42.332031 -59.75 45.1875 -58.03125 C 48.050781 -56.320312 50.125 -54.078125 51.40625 -51.296875 L 52.90625 -59.765625 L 71.21875 -59.765625 L 60.609375 0 L 42.296875 0 L 43.90625 -8.453125 C 41.625 -5.671875 38.734375 -3.421875 35.234375 -1.703125 C 31.734375 0.00390625 27.878906 0.859375 23.671875 0.859375 C 19.453125 0.859375 15.71875 -0.101562 12.46875 -2.03125 C 9.226562 -3.957031 6.710938 -6.6875 4.921875 -10.21875 C 3.140625 -13.757812 2.25 -17.921875 2.25 -22.703125 C 2.25 -24.984375 2.460938 -27.410156 2.890625 -29.984375 Z M 47.65625 -29.875 C 47.875 -31.164062 47.984375 -32.34375 47.984375 -33.40625 C 47.984375 -36.90625 46.960938 -39.65625 44.921875 -41.65625 C 42.890625 -43.65625 40.300781 -44.65625 37.15625 -44.65625 C 33.519531 -44.65625 30.203125 -43.351562 27.203125 -40.75 C 24.203125 -38.144531 22.3125 -34.554688 21.53125 -29.984375 C 21.3125 -28.703125 21.203125 -27.523438 21.203125 -26.453125 C 21.203125 -22.953125 22.21875 -20.179688 24.25 -18.140625 C 26.289062 -16.109375 28.84375 -15.09375 31.90625 -15.09375 C 35.550781 -15.09375 38.875 -16.414062 41.875 -19.0625 C 44.875 -21.707031 46.800781 -25.3125 47.65625 -29.875 Z M 47.65625 -29.875 "/></g></g></g><g fill="#5170ff" fill-opacity="1"><g transform="translate(401.761617, 112.82226)"><g><path d="M 48.1875 -60.40625 C 54.1875 -60.40625 58.898438 -58.722656 62.328125 -55.359375 C 65.753906 -52.003906 67.46875 -47.332031 67.46875 -41.34375 C 67.46875 -39.34375 67.253906 -37.195312 66.828125 -34.90625 L 60.609375 0 L 42.40625 0 L 48.1875 -32.453125 C 48.40625 -33.660156 48.515625 -34.726562 48.515625 -35.65625 C 48.515625 -38.65625 47.675781 -40.976562 46 -42.625 C 44.320312 -44.269531 41.984375 -45.09375 38.984375 -45.09375 C 35.410156 -45.09375 32.410156 -43.984375 29.984375 -41.765625 C 27.554688 -39.554688 25.988281 -36.453125 25.28125 -32.453125 L 25.28125 -32.984375 L 19.484375 0 L 1.171875 0 L 11.671875 -59.765625 L 29.984375 -59.765625 L 28.59375 -51.71875 C 30.945312 -54.363281 33.816406 -56.472656 37.203125 -58.046875 C 40.597656 -59.617188 44.257812 -60.40625 48.1875 -60.40625 Z M 48.1875 -60.40625 "/></g></g></g><g fill="#5170ff" fill-opacity="1"><g transform="translate(468.261695, 112.82226)"><g><path d="M 40.59375 -29.765625 L 60.40625 0 L 37.703125 0 L 23.875 -24.953125 L 19.484375 0 L 1.171875 0 L 15.203125 -79.25 L 33.515625 -79.25 L 25.8125 -35.5625 L 48.078125 -59.765625 L 70.6875 -59.765625 Z M 40.59375 -29.765625 "/></g></g></g></g></g></svg>